<svg xmlns="http://www.w3.org/2000/svg" xmlns:xlink="http://www.w3.org/1999/xlink" width="500" zoomAndPan="magnify" viewBox="0 0 375 187.499995" height="250" preserveAspectRatio="xMidYMid meet" version="1.0"><defs><g/><clipPath id="a6263035b1"><path d="M 271 60 L 358.835938 60 L 358.835938 125.753906 L 271 125.753906 Z M 271 60 " clip-rule="nonzero"/></clipPath><clipPath id="6b51411402"><path d="M 102.269531 86 L 277 86 L 277 100 L 102.269531 100 Z M 102.269531 86 " clip-rule="nonzero"/></clipPath><clipPath id="870121766b"><path d="M 248 66 L 276 66 L 276 91 L 248 91 Z M 248 66 " clip-rule="nonzero"/></clipPath><clipPath id="3d5ab466fb"><path d="M 247.566406 80.167969 L 260.699219 62.902344 L 282.132812 79.207031 L 269 96.472656 Z M 247.566406 80.167969 " clip-rule="nonzero"/></clipPath><clipPath id="9580a99de0"><path d="M 247.566406 80.167969 L 260.699219 62.902344 L 282.132812 79.207031 L 269 96.472656 Z M 247.566406 80.167969 " clip-rule="nonzero"/></clipPath><clipPath id="5c203a0e3d"><path d="M 251 79 L 275 79 L 275 89 L 251 89 Z M 251 79 " clip-rule="nonzero"/></clipPath><clipPath id="00e552d3aa"><path d="M 247.566406 80.167969 L 260.699219 62.902344 L 282.132812 79.207031 L 269 96.472656 Z M 247.566406 80.167969 " clip-rule="nonzero"/></clipPath><clipPath id="2720356bc2"><path d="M 247.566406 80.167969 L 260.699219 62.902344 L 282.132812 79.207031 L 269 96.472656 Z M 247.566406 80.167969 " clip-rule="nonzero"/></clipPath><clipPath id="1e3f0e2078"><path d="M 266 69 L 274 69 L 274 84 L 266 84 Z M 266 69 " clip-rule="nonzero"/></clipPath><clipPath id="02cfe81017"><path d="M 247.566406 80.167969 L 260.699219 62.902344 L 282.132812 79.207031 L 269 96.472656 Z M 247.566406 80.167969 " clip-rule="nonzero"/></clipPath><clipPath id="c69e459c83"><path d="M 247.566406 80.167969 L 260.699219 62.902344 L 282.132812 79.207031 L 269 96.472656 Z M 247.566406 80.167969 " clip-rule="nonzero"/></clipPath><clipPath id="9ae3c0c04c"><path d="M 250 94 L 276 94 L 276 121 L 250 121 Z M 250 94 " clip-rule="nonzero"/></clipPath><clipPath id="f2a792a871"><path d="M 261.164062 121.265625 L 247.058594 104.78125 L 267.519531 87.273438 L 281.625 103.753906 Z M 261.164062 121.265625 " clip-rule="nonzero"/></clipPath><clipPath id="5eb8b2f183"><path d="M 261.164062 121.265625 L 247.058594 104.78125 L 267.519531 87.273438 L 281.625 103.753906 Z M 261.164062 121.265625 " clip-rule="nonzero"/></clipPath><clipPath id="d68e660388"><path d="M 262 96 L 274 96 L 274 118 L 262 118 Z M 262 96 " clip-rule="nonzero"/></clipPath><clipPath id="41d8975626"><path d="M 261.164062 121.265625 L 247.058594 104.78125 L 267.519531 87.273438 L 281.625 103.753906 Z M 261.164062 121.265625 " clip-rule="nonzero"/></clipPath><clipPath id="a236a30e4e"><path d="M 261.164062 121.265625 L 247.058594 104.78125 L 267.519531 87.273438 L 281.625 103.753906 Z M 261.164062 121.265625 " clip-rule="nonzero"/></clipPath><clipPath id="60acfb8a5c"><path d="M 254 95 L 271 95 L 271 102 L 254 102 Z M 254 95 " clip-rule="nonzero"/></clipPath><clipPath id="c3c4e38d48"><path d="M 261.164062 121.265625 L 247.058594 104.78125 L 267.519531 87.273438 L 281.625 103.753906 Z M 261.164062 121.265625 " clip-rule="nonzero"/></clipPath><clipPath id="3439cbac26"><path d="M 261.164062 121.265625 L 247.058594 104.78125 L 267.519531 87.273438 L 281.625 103.753906 Z M 261.164062 121.265625 " clip-rule="nonzero"/></clipPath><clipPath id="e70dd207e3"><path d="M 249 80 L 274 80 L 274 103 L 249 103 Z M 249 80 " clip-rule="nonzero"/></clipPath><clipPath id="e447c1d5d8"><path d="M 249.144531 103.464844 L 246.859375 81.894531 L 273.640625 79.058594 L 275.921875 100.632812 Z M 249.144531 103.464844 " clip-rule="nonzero"/></clipPath><clipPath id="d2eeef6392"><path d="M 249.144531 103.464844 L 246.859375 81.894531 L 273.640625 79.058594 L 275.921875 100.632812 Z M 249.144531 103.464844 " clip-rule="nonzero"/></clipPath><clipPath id="e0fb619b02"><path d="M 252 90 L 274 90 L 274 102 L 252 102 Z M 252 90 " clip-rule="nonzero"/></clipPath><clipPath id="015276e5d0"><path d="M 249.144531 103.464844 L 246.859375 81.894531 L 273.640625 79.058594 L 275.921875 100.632812 Z M 249.144531 103.464844 " clip-rule="nonzero"/></clipPath><clipPath id="76a65316e7"><path d="M 249.144531 103.464844 L 246.859375 81.894531 L 273.640625 79.058594 L 275.921875 100.632812 Z M 249.144531 103.464844 " clip-rule="nonzero"/></clipPath><clipPath id="520c463d85"><path d="M 255 81 L 271 81 L 271 89 L 255 89 Z M 255 81 " clip-rule="nonzero"/></clipPath><clipPath id="8167c4b210"><path d="M 249.144531 103.464844 L 246.859375 81.894531 L 273.640625 79.058594 L 275.921875 100.632812 Z M 249.144531 103.464844 " clip-rule="nonzero"/></clipPath><clipPath id="3715a310b8"><path d="M 249.144531 103.464844 L 246.859375 81.894531 L 273.640625 79.058594 L 275.921875 100.632812 Z M 249.144531 103.464844 " clip-rule="nonzero"/></clipPath></defs><g clip-path="url(#a6263035b1)"><path fill="#ffbd59" d="M 358.777344 92.753906 C 358.777344 92.753906 322.285156 125.347656 304.292969 125.347656 C 286.300781 125.347656 271.699219 110.746094 271.699219 92.753906 C 271.699219 74.761719 286.300781 60.160156 304.292969 60.160156 C 322.285156 60.160156 358.777344 92.753906 358.777344 92.753906 Z M 358.777344 92.753906 " fill-opacity="1" fill-rule="nonzero"/></g><g clip-path="url(#6b51411402)"><path fill="#ffbd59" d="M 276.5625 86.1875 L 276.5625 99.324219 L 102.5 99.324219 L 102.5 86.1875 Z M 276.5625 86.1875 " fill-opacity="1" fill-rule="nonzero"/></g><path fill="#ffbd59" d="M 279.636719 92.753906 C 279.636719 100.390625 276.320312 106.589844 272.234375 106.589844 C 268.148438 106.589844 264.828125 100.390625 264.828125 92.753906 C 264.828125 85.117188 268.148438 78.921875 272.234375 78.921875 C 276.320312 78.921875 279.636719 85.117188 279.636719 92.753906 Z M 279.636719 92.753906 " fill-opacity="1" fill-rule="nonzero"/><path fill="#ffffff" d="M 318.804688 92.753906 C 318.804688 103.691406 317.207031 112.566406 315.238281 112.566406 C 313.269531 112.566406 311.671875 103.691406 311.671875 92.753906 C 311.671875 81.816406 313.269531 72.941406 315.238281 72.941406 C 317.207031 72.941406 318.804688 81.816406 318.804688 92.753906 Z M 318.804688 92.753906 " fill-opacity="1" fill-rule="nonzero"/><path fill="#ffffff" d="M 311.964844 92.753906 C 311.964844 103.691406 310.367188 112.566406 308.398438 112.566406 C 306.433594 112.566406 304.832031 103.691406 304.832031 92.753906 C 304.832031 81.816406 306.433594 72.941406 308.398438 72.941406 C 310.367188 72.941406 311.964844 81.816406 311.964844 92.753906 Z M 311.964844 92.753906 " fill-opacity="1" fill-rule="nonzero"/><path fill="#ffffff" d="M 304.835938 92.753906 C 304.835938 103.691406 303.238281 112.566406 301.269531 112.566406 C 299.300781 112.566406 297.703125 103.691406 297.703125 92.753906 C 297.703125 81.816406 299.300781 72.941406 301.269531 72.941406 C 303.238281 72.941406 304.835938 81.816406 304.835938 92.753906 Z M 304.835938 92.753906 " fill-opacity="1" fill-rule="nonzero"/><path fill="#800000" d="M 314.144531 92.753906 C 314.144531 96.957031 310.734375 100.367188 306.53125 100.367188 C 302.328125 100.367188 298.917969 96.957031 298.917969 92.753906 C 298.917969 88.550781 302.328125 85.140625 306.53125 85.140625 C 310.734375 85.140625 314.144531 88.550781 314.144531 92.753906 Z M 314.144531 92.753906 " fill-opacity="1" fill-rule="nonzero"/><g fill="#800000" fill-opacity="1"><g transform="translate(14.47098, 129.289056)"><g><path d="M 73.71875 0 L 73.625 -43 L 52.53125 -7.578125 L 45.046875 -7.578125 L 24.0625 -42.078125 L 24.0625 0 L 8.5 0 L 8.5 -71.671875 L 22.21875 -71.671875 L 49.046875 -27.140625 L 75.46875 -71.671875 L 89.078125 -71.671875 L 89.28125 0 Z M 73.71875 0 "/></g></g></g><g fill="#800000" fill-opacity="1"><g transform="translate(108.87509, 129.289056)"><g><path d="M 64 -13.3125 L 64 0 L 8.5 0 L 8.5 -71.671875 L 62.65625 -71.671875 L 62.65625 -58.359375 L 24.984375 -58.359375 L 24.984375 -42.796875 L 58.265625 -42.796875 L 58.265625 -29.890625 L 24.984375 -29.890625 L 24.984375 -13.3125 Z M 64 -13.3125 "/></g></g></g><g fill="#800000" fill-opacity="1"><g transform="translate(174.200241, 129.289056)"><g><path d="M 42.796875 1.234375 C 35.492188 1.234375 28.890625 -0.351562 22.984375 -3.53125 C 17.078125 -6.707031 12.4375 -11.109375 9.0625 -16.734375 C 5.6875 -22.367188 4 -28.738281 4 -35.84375 C 4 -42.9375 5.6875 -49.296875 9.0625 -54.921875 C 12.4375 -60.554688 17.078125 -64.960938 22.984375 -68.140625 C 28.890625 -71.316406 35.53125 -72.90625 42.90625 -72.90625 C 49.113281 -72.90625 54.722656 -71.8125 59.734375 -69.625 C 64.753906 -67.4375 68.972656 -64.296875 72.390625 -60.203125 L 61.734375 -50.375 C 56.890625 -55.96875 50.882812 -58.765625 43.71875 -58.765625 C 39.28125 -58.765625 35.320312 -57.789062 31.84375 -55.84375 C 28.363281 -53.90625 25.648438 -51.191406 23.703125 -47.703125 C 21.753906 -44.222656 20.78125 -40.269531 20.78125 -35.84375 C 20.78125 -31.40625 21.753906 -27.441406 23.703125 -23.953125 C 25.648438 -20.472656 28.363281 -17.757812 31.84375 -15.8125 C 35.320312 -13.875 39.28125 -12.90625 43.71875 -12.90625 C 50.882812 -12.90625 56.890625 -15.738281 61.734375 -21.40625 L 72.390625 -11.5625 C 68.972656 -7.40625 64.738281 -4.234375 59.6875 -2.046875 C 54.632812 0.140625 49.003906 1.234375 42.796875 1.234375 Z M 42.796875 1.234375 "/></g></g></g><g clip-path="url(#870121766b)"><g clip-path="url(#3d5ab466fb)"><g clip-path="url(#9580a99de0)"><path fill="#800000" d="M 266.003906 79.023438 C 265.882812 78.460938 265.503906 77.839844 265.316406 77.320312 C 265.03125 76.539062 264.777344 75.75 264.5625 74.949219 C 264.140625 73.386719 263.863281 71.789062 263.761719 70.175781 C 263.71875 69.484375 263.320312 66.632812 264.027344 66.21875 C 264.746094 65.796875 267.125 67.609375 267.714844 68.027344 C 272.320312 71.289062 275.3125 76.847656 275.207031 82.523438 C 275.1875 83.601562 275.066406 84.675781 274.945312 85.75 C 274.621094 88.632812 272.308594 89.914062 269.539062 90.09375 C 267.617188 90.21875 265.707031 89.746094 263.875 89.152344 C 258.1875 87.304688 253.109375 84.390625 248.640625 80.417969 L 248.640625 80.414062 C 247.890625 79.746094 251.503906 78.734375 251.871094 78.625 C 253.597656 78.109375 255.375 77.707031 257.1875 77.65625 C 258.695312 77.617188 260.195312 77.820312 261.667969 78.144531 C 262.40625 78.304688 263.140625 78.5 263.871094 78.707031 C 264.5 78.882812 265.414062 79.351562 266.039062 79.285156 C 266.035156 79.195312 266.023438 79.109375 266.003906 79.023438 Z M 266.003906 79.023438 " fill-opacity="1" fill-rule="nonzero"/></g></g></g><g clip-path="url(#5c203a0e3d)"><g clip-path="url(#00e552d3aa)"><g clip-path="url(#2720356bc2)"><path fill="#800000" d="M 268.601562 85.585938 C 268.652344 85.597656 268.707031 85.609375 268.757812 85.621094 C 268.824219 85.636719 268.890625 85.605469 268.832031 85.539062 C 267.328125 83.789062 265.8125 82.046875 264.34375 80.269531 C 266.078125 81.878906 267.679688 83.617188 269.136719 85.480469 C 269.230469 85.601562 269.328125 85.722656 269.449219 85.8125 C 269.613281 85.9375 269.816406 85.992188 270.015625 86.042969 C 271.207031 86.351562 272.410156 86.570312 273.628906 86.703125 C 273.847656 86.726562 274.082031 86.753906 274.246094 86.898438 C 273.796875 86.890625 273.347656 86.851562 272.902344 86.78125 C 272.757812 86.761719 272.617188 86.734375 272.476562 86.757812 C 272.3125 86.789062 272.167969 86.882812 272.027344 86.972656 C 270.433594 87.972656 268.699219 88.515625 266.824219 88.597656 C 266.757812 88.597656 266.675781 88.59375 266.648438 88.535156 C 266.59375 88.433594 266.75 88.355469 266.863281 88.34375 C 268.601562 88.167969 270.25 87.6875 271.808594 86.898438 C 271.902344 86.851562 272.003906 86.796875 272.039062 86.695312 C 272 86.800781 270.507812 86.414062 270.359375 86.375 C 269.789062 86.214844 269.226562 86.027344 268.660156 85.851562 C 268.164062 85.699219 267.671875 85.535156 267.179688 85.386719 C 266.820312 85.273438 266.167969 84.945312 265.804688 85.152344 C 265.007812 85.613281 263.972656 85.824219 263.074219 85.957031 C 261.992188 86.117188 260.683594 86.183594 259.609375 85.929688 C 259.550781 85.914062 259.480469 85.886719 259.46875 85.828125 C 259.449219 85.722656 259.605469 85.691406 259.710938 85.703125 C 261.710938 85.957031 263.664062 85.757812 265.574219 85.113281 C 265.613281 85.101562 265.648438 85.085938 265.6875 85.070312 C 265.75 85.046875 265.71875 84.988281 265.667969 84.972656 C 264.167969 84.566406 262.726562 83.996094 261.246094 83.527344 C 260.820312 83.394531 260.394531 83.269531 259.96875 83.152344 C 259.753906 83.089844 259.539062 83.035156 259.324219 82.980469 C 259.160156 82.9375 258.957031 82.847656 258.789062 82.890625 C 258.730469 82.90625 258.671875 82.929688 258.613281 82.960938 C 257.964844 83.257812 257.207031 83.25 256.507812 83.265625 C 256.171875 83.273438 255.832031 83.277344 255.496094 83.253906 C 255.234375 83.230469 254.972656 83.226562 254.710938 83.1875 C 254.445312 83.152344 254.175781 83.121094 253.917969 83.042969 C 253.855469 83.023438 253.789062 83.023438 253.722656 83.007812 C 253.691406 83 253.660156 82.988281 253.632812 82.972656 C 253.609375 82.960938 253.570312 82.9375 253.558594 82.910156 C 253.582031 82.90625 253.601562 82.902344 253.625 82.902344 C 253.648438 82.902344 253.671875 82.898438 253.695312 82.902344 C 253.796875 82.902344 253.894531 82.925781 253.996094 82.9375 C 254.253906 82.960938 254.511719 82.980469 254.769531 82.988281 C 255.257812 83.007812 255.75 83.019531 256.238281 83.003906 C 256.5 82.996094 256.757812 82.980469 257.019531 82.960938 C 257.4375 82.933594 257.851562 82.878906 258.265625 82.800781 C 258.472656 82.757812 258.167969 82.664062 258.121094 82.648438 C 257.925781 82.59375 257.742188 82.507812 257.542969 82.46875 C 257.128906 82.386719 256.671875 82.183594 256.261719 82.058594 C 255.765625 81.90625 255.273438 81.746094 254.785156 81.574219 C 254.226562 81.378906 253.671875 81.167969 253.125 80.945312 C 252.925781 80.867188 251.769531 80.511719 251.8125 80.285156 C 251.832031 80.164062 252.585938 80.519531 252.695312 80.566406 C 253.074219 80.714844 253.453125 80.859375 253.832031 81.003906 C 254.578125 81.285156 255.332031 81.546875 256.085938 81.800781 C 256.855469 82.054688 257.632812 82.296875 258.410156 82.523438 C 258.800781 82.636719 259.191406 82.746094 259.582031 82.851562 C 259.78125 82.90625 259.984375 82.960938 260.183594 83.011719 C 260.3125 83.046875 260.457031 83.132812 260.597656 83.125 C 260.714844 83.121094 260.683594 83.089844 260.617188 83.007812 C 260.550781 82.925781 260.476562 82.84375 260.40625 82.761719 C 260.128906 82.445312 259.835938 82.140625 259.554688 81.828125 C 259.230469 81.46875 258.921875 81.097656 258.621094 80.722656 C 258.46875 80.535156 258.316406 80.34375 258.167969 80.15625 C 258.121094 80.09375 257.765625 79.71875 257.816406 79.652344 C 257.847656 79.609375 258.441406 80.257812 258.503906 80.320312 C 258.769531 80.605469 259.035156 80.890625 259.300781 81.171875 C 259.628906 81.527344 259.957031 81.878906 260.285156 82.230469 C 260.445312 82.40625 260.605469 82.578125 260.765625 82.753906 C 260.902344 82.898438 260.992188 83.105469 261.140625 83.230469 C 261.238281 83.3125 261.359375 83.355469 261.476562 83.398438 C 262.253906 83.664062 263.03125 83.933594 263.8125 84.183594 C 264.585938 84.433594 265.375 84.632812 266.152344 84.863281 C 266.59375 84.992188 267.039062 85.121094 267.480469 85.253906 C 267.851562 85.359375 268.222656 85.496094 268.601562 85.585938 Z M 268.601562 85.585938 " fill-opacity="1" fill-rule="nonzero"/></g></g></g><g clip-path="url(#1e3f0e2078)"><g clip-path="url(#02cfe81017)"><g clip-path="url(#c69e459c83)"><path fill="#800000" d="M 273.210938 82.339844 C 273.210938 82.46875 273.195312 82.589844 273.144531 82.707031 C 273.085938 82.828125 272.933594 82.957031 272.960938 83.101562 C 272.972656 83.171875 273.015625 83.234375 273.054688 83.296875 L 273.277344 83.625 C 273.3125 83.679688 273.417969 83.835938 273.382812 83.90625 C 273.28125 84.09375 273.078125 83.796875 273.019531 83.710938 C 272.707031 83.277344 272.453125 82.808594 272.261719 82.308594 C 272.144531 82.011719 272.050781 81.699219 271.875 81.4375 C 271.675781 81.140625 271.363281 81.007812 271.082031 80.8125 C 269.941406 80.035156 268.902344 79.140625 267.964844 78.128906 C 267.722656 77.867188 267.488281 77.597656 267.257812 77.320312 C 267.054688 77.074219 266.753906 76.789062 266.628906 76.492188 C 267.011719 76.574219 267.351562 77.257812 267.613281 77.535156 C 267.988281 77.929688 268.371094 78.3125 268.769531 78.683594 C 269.644531 79.503906 270.574219 80.273438 271.558594 80.953125 C 271.578125 80.96875 271.597656 80.976562 271.621094 80.976562 C 271.710938 80.957031 271.230469 79.949219 271.179688 79.835938 C 270.972656 79.382812 270.765625 78.929688 270.554688 78.476562 C 270.136719 77.566406 269.714844 76.660156 269.285156 75.757812 L 267.675781 72.363281 C 267.410156 71.804688 267.144531 71.246094 266.804688 70.730469 C 266.605469 70.429688 266.105469 70.011719 266.171875 69.617188 C 267.03125 70.339844 267.566406 71.523438 268.050781 72.515625 L 269.222656 74.921875 L 269.796875 76.105469 C 269.964844 76.449219 270.085938 76.914062 270.316406 77.210938 C 270.316406 77.210938 270.320312 76.761719 270.316406 76.714844 C 270.285156 76.480469 270.253906 76.242188 270.226562 76.007812 C 270.167969 75.515625 270.121094 75.027344 270.082031 74.535156 C 270.050781 74.148438 270.035156 73.761719 270.015625 73.371094 C 269.992188 72.980469 269.917969 72.59375 269.894531 72.199219 C 269.886719 72.066406 269.863281 71.753906 270 71.675781 C 270.117188 71.828125 270.074219 72.101562 270.09375 72.28125 C 270.121094 72.53125 270.148438 72.777344 270.175781 73.027344 C 270.226562 73.507812 270.277344 73.988281 270.328125 74.46875 C 270.382812 75.015625 270.4375 75.5625 270.488281 76.109375 C 270.535156 76.601562 270.660156 77.152344 270.566406 77.644531 C 270.539062 77.777344 270.617188 77.875 270.664062 77.980469 C 270.78125 78.246094 270.886719 78.519531 271.007812 78.789062 C 271.191406 79.183594 271.382812 79.574219 271.5625 79.96875 C 271.726562 80.328125 271.875 80.691406 272.03125 81.054688 C 272.191406 81.425781 272.355469 81.796875 272.507812 82.171875 C 272.539062 82.253906 272.78125 82.925781 272.910156 82.648438 C 272.921875 82.609375 272.929688 82.566406 272.929688 82.527344 C 272.964844 80.96875 272.820312 79.417969 272.851562 77.859375 C 272.855469 77.628906 272.863281 77.394531 272.878906 77.160156 C 273 77.558594 272.964844 77.953125 272.992188 78.363281 C 273.019531 78.792969 273.046875 79.226562 273.074219 79.65625 C 273.125 80.515625 273.160156 81.375 273.207031 82.234375 C 273.210938 82.269531 273.210938 82.304688 273.210938 82.339844 Z M 273.210938 82.339844 " fill-opacity="1" fill-rule="nonzero"/></g></g></g><g clip-path="url(#9ae3c0c04c)"><g clip-path="url(#f2a792a871)"><g clip-path="url(#5eb8b2f183)"><path fill="#800000" d="M 263.9375 103 C 263.363281 103 262.671875 103.238281 262.125 103.3125 C 261.304688 103.425781 260.476562 103.507812 259.648438 103.550781 C 258.035156 103.632812 256.414062 103.566406 254.8125 103.324219 C 254.128906 103.222656 251.257812 103.007812 251.003906 102.230469 C 250.742188 101.4375 253.015625 99.496094 253.546875 99.007812 C 257.707031 95.195312 263.773438 93.441406 269.300781 94.742188 C 270.347656 94.992188 271.375 95.335938 272.398438 95.679688 C 275.148438 96.605469 275.910156 99.136719 275.503906 101.878906 C 275.21875 103.785156 274.355469 105.550781 273.386719 107.214844 C 270.378906 112.386719 266.460938 116.738281 261.632812 120.265625 C 260.816406 120.855469 260.59375 117.109375 260.5625 116.730469 C 260.425781 114.933594 260.40625 113.109375 260.738281 111.332031 C 261.019531 109.847656 261.535156 108.421875 262.160156 107.050781 C 262.476562 106.363281 262.820312 105.6875 263.175781 105.015625 C 263.480469 104.441406 264.132812 103.644531 264.199219 103.019531 C 264.113281 103.003906 264.027344 103 263.9375 103 Z M 263.9375 103 " fill-opacity="1" fill-rule="nonzero"/></g></g></g><g clip-path="url(#d68e660388)"><g clip-path="url(#41d8975626)"><g clip-path="url(#a236a30e4e)"><path fill="#800000" d="M 270.898438 101.847656 C 270.921875 101.796875 270.945312 101.75 270.96875 101.699219 C 270.996094 101.636719 270.980469 101.566406 270.902344 101.609375 C 268.871094 102.710938 266.851562 103.824219 264.804688 104.882812 C 266.746094 103.527344 268.78125 102.332031 270.910156 101.300781 C 271.046875 101.234375 271.1875 101.164062 271.300781 101.066406 C 271.453125 100.929688 271.550781 100.742188 271.644531 100.558594 C 272.195312 99.460938 272.664062 98.332031 273.050781 97.164062 C 273.121094 96.957031 273.195312 96.734375 273.375 96.605469 C 273.273438 97.042969 273.140625 97.476562 272.976562 97.894531 C 272.925781 98.027344 272.871094 98.164062 272.863281 98.308594 C 272.855469 98.472656 272.917969 98.632812 272.976562 98.789062 C 273.617188 100.558594 273.78125 102.367188 273.464844 104.21875 C 273.457031 104.285156 273.433594 104.363281 273.371094 104.378906 C 273.257812 104.410156 273.214844 104.242188 273.226562 104.125 C 273.421875 102.390625 273.300781 100.679688 272.859375 98.988281 C 272.835938 98.886719 272.800781 98.777344 272.710938 98.71875 C 272.804688 98.777344 272.113281 100.15625 272.042969 100.292969 C 271.765625 100.816406 271.460938 101.328125 271.171875 101.847656 C 270.917969 102.296875 270.652344 102.742188 270.402344 103.195312 C 270.21875 103.523438 269.757812 104.089844 269.886719 104.488281 C 270.167969 105.363281 270.15625 106.421875 270.09375 107.328125 C 270.023438 108.417969 269.8125 109.710938 269.335938 110.707031 C 269.3125 110.761719 269.269531 110.824219 269.207031 110.824219 C 269.101562 110.820312 269.101562 110.660156 269.136719 110.5625 C 269.804688 108.660156 270.027344 106.707031 269.796875 104.707031 C 269.792969 104.664062 269.789062 104.625 269.78125 104.585938 C 269.769531 104.519531 269.707031 104.535156 269.679688 104.585938 C 268.964844 105.964844 268.105469 107.253906 267.335938 108.601562 C 267.113281 108.988281 266.902344 109.378906 266.695312 109.769531 C 266.59375 109.96875 266.492188 110.167969 266.394531 110.367188 C 266.320312 110.515625 266.1875 110.691406 266.191406 110.867188 C 266.195312 110.929688 266.207031 110.992188 266.222656 111.050781 C 266.378906 111.75 266.210938 112.488281 266.082031 113.175781 C 266.015625 113.507812 265.949219 113.839844 265.851562 114.164062 C 265.777344 114.414062 265.714844 114.671875 265.625 114.917969 C 265.53125 115.167969 265.445312 115.425781 265.316406 115.660156 C 265.285156 115.71875 265.265625 115.785156 265.238281 115.84375 C 265.226562 115.875 265.207031 115.902344 265.1875 115.925781 C 265.167969 115.945312 265.136719 115.976562 265.109375 115.984375 C 265.109375 115.960938 265.109375 115.941406 265.113281 115.917969 C 265.117188 115.894531 265.121094 115.871094 265.128906 115.851562 C 265.152344 115.75 265.195312 115.660156 265.226562 115.5625 C 265.304688 115.316406 265.375 115.070312 265.441406 114.816406 C 265.5625 114.34375 265.675781 113.867188 265.765625 113.382812 C 265.8125 113.128906 265.851562 112.871094 265.890625 112.613281 C 265.949219 112.199219 265.984375 111.78125 265.996094 111.359375 C 266 111.148438 265.839844 111.425781 265.816406 111.46875 C 265.71875 111.648438 265.597656 111.808594 265.515625 111.996094 C 265.351562 112.382812 265.054688 112.789062 264.847656 113.164062 C 264.59375 113.617188 264.332031 114.0625 264.058594 114.503906 C 263.75 115.007812 263.429688 115.503906 263.097656 115.996094 C 262.976562 116.171875 262.386719 117.226562 262.171875 117.140625 C 262.058594 117.089844 262.566406 116.429688 262.632812 116.332031 C 262.859375 115.996094 263.082031 115.65625 263.304688 115.3125 C 263.734375 114.644531 264.152344 113.964844 264.558594 113.277344 C 264.96875 112.578125 265.371094 111.875 265.753906 111.160156 C 265.949219 110.804688 266.136719 110.445312 266.324219 110.082031 C 266.417969 109.898438 266.511719 109.714844 266.605469 109.53125 C 266.667969 109.410156 266.78125 109.285156 266.804688 109.152344 C 266.824219 109.035156 266.785156 109.058594 266.695312 109.105469 C 266.597656 109.152344 266.503906 109.207031 266.410156 109.257812 C 266.042969 109.464844 265.683594 109.6875 265.316406 109.894531 C 264.898438 110.136719 264.46875 110.359375 264.039062 110.578125 C 263.824219 110.683594 263.605469 110.792969 263.386719 110.894531 C 263.320312 110.929688 262.878906 111.199219 262.820312 111.132812 C 262.789062 111.097656 263.546875 110.652344 263.621094 110.605469 C 263.957031 110.40625 264.289062 110.207031 264.621094 110.007812 C 265.035156 109.757812 265.449219 109.511719 265.863281 109.269531 C 266.066406 109.148438 266.273438 109.027344 266.476562 108.90625 C 266.648438 108.804688 266.867188 108.761719 267.023438 108.640625 C 267.125 108.566406 267.191406 108.453125 267.257812 108.347656 C 267.683594 107.644531 268.105469 106.941406 268.515625 106.230469 C 268.925781 105.527344 269.285156 104.796875 269.675781 104.085938 C 269.894531 103.679688 270.117188 103.277344 270.335938 102.871094 C 270.519531 102.53125 270.730469 102.195312 270.898438 101.847656 Z M 270.898438 101.847656 " fill-opacity="1" fill-rule="nonzero"/></g></g></g><g clip-path="url(#60acfb8a5c)"><g clip-path="url(#c3c4e38d48)"><g clip-path="url(#3439cbac26)"><path fill="#800000" d="M 268.699219 96.652344 C 268.824219 96.679688 268.941406 96.722656 269.042969 96.796875 C 269.148438 96.878906 269.246094 97.054688 269.390625 97.058594 C 269.464844 97.0625 269.535156 97.035156 269.601562 97.007812 L 269.96875 96.863281 C 270.03125 96.835938 270.207031 96.769531 270.265625 96.820312 C 270.429688 96.957031 270.097656 97.089844 270 97.132812 C 269.507812 97.34375 268.996094 97.492188 268.46875 97.578125 C 268.15625 97.625 267.828125 97.652344 267.53125 97.773438 C 267.203125 97.902344 267.007812 98.179688 266.757812 98.414062 C 265.753906 99.363281 264.660156 100.1875 263.476562 100.894531 C 263.167969 101.074219 262.855469 101.25 262.539062 101.414062 C 262.253906 101.5625 261.910156 101.792969 261.59375 101.855469 C 261.753906 101.5 262.496094 101.308594 262.820312 101.109375 C 263.285156 100.828125 263.742188 100.535156 264.1875 100.226562 C 265.175781 99.542969 266.121094 98.796875 266.996094 97.976562 C 267.015625 97.960938 267.027344 97.945312 267.03125 97.921875 C 267.03125 97.828125 265.945312 98.085938 265.824219 98.113281 C 265.335938 98.21875 264.847656 98.328125 264.359375 98.433594 C 263.382812 98.652344 262.410156 98.875 261.4375 99.101562 L 257.78125 99.957031 C 257.179688 100.101562 256.574219 100.242188 255.996094 100.46875 C 255.664062 100.597656 255.148438 100.996094 254.777344 100.851562 C 255.664062 100.164062 256.933594 99.890625 258.007812 99.625 L 260.609375 98.988281 L 261.882812 98.675781 C 262.253906 98.585938 262.734375 98.566406 263.074219 98.402344 C 263.074219 98.402344 262.636719 98.300781 262.589844 98.296875 C 262.351562 98.277344 262.113281 98.257812 261.878906 98.234375 C 261.386719 98.1875 260.898438 98.132812 260.410156 98.066406 C 260.023438 98.015625 259.640625 97.949219 259.257812 97.886719 C 258.871094 97.824219 258.476562 97.816406 258.085938 97.757812 C 257.953125 97.738281 257.644531 97.691406 257.597656 97.542969 C 257.769531 97.460938 258.027344 97.5625 258.207031 97.582031 C 258.457031 97.605469 258.707031 97.632812 258.953125 97.65625 C 259.433594 97.707031 259.914062 97.757812 260.394531 97.8125 C 260.941406 97.875 261.488281 97.9375 262.03125 98 C 262.523438 98.058594 263.089844 98.050781 263.550781 98.25 C 263.675781 98.304688 263.785156 98.25 263.898438 98.226562 C 264.183594 98.164062 264.476562 98.121094 264.761719 98.058594 C 265.1875 97.964844 265.609375 97.855469 266.035156 97.765625 C 266.417969 97.683594 266.804688 97.613281 267.191406 97.539062 C 267.589844 97.460938 267.988281 97.378906 268.386719 97.308594 C 268.472656 97.292969 269.179688 97.199219 268.9375 97.015625 C 268.902344 96.992188 268.863281 96.976562 268.820312 96.96875 C 267.308594 96.605469 265.757812 96.421875 264.246094 96.0625 C 264.015625 96.007812 263.792969 95.949219 263.566406 95.886719 C 263.980469 95.851562 264.359375 95.96875 264.765625 96.027344 C 265.195312 96.089844 265.621094 96.15625 266.046875 96.222656 C 266.898438 96.355469 267.746094 96.503906 268.59375 96.636719 C 268.628906 96.640625 268.664062 96.648438 268.699219 96.652344 Z M 268.699219 96.652344 " fill-opacity="1" fill-rule="nonzero"/></g></g></g><g clip-path="url(#e70dd207e3)"><g clip-path="url(#e447c1d5d8)"><g clip-path="url(#d2eeef6392)"><path fill="#800000" d="M 261.777344 89.988281 C 261.304688 89.660156 260.601562 89.46875 260.105469 89.21875 C 259.363281 88.847656 258.640625 88.445312 257.929688 88.011719 C 256.554688 87.164062 255.257812 86.191406 254.074219 85.085938 C 253.570312 84.613281 251.324219 82.808594 251.554688 82.023438 C 251.789062 81.222656 254.761719 80.910156 255.480469 80.808594 C 261.066406 80.023438 267.058594 82.019531 270.875 86.222656 C 271.597656 87.019531 272.246094 87.886719 272.894531 88.75 C 274.636719 91.070312 273.832031 93.589844 271.941406 95.617188 C 270.628906 97.027344 268.914062 97.992188 267.171875 98.816406 C 261.765625 101.371094 256.074219 102.738281 250.09375 102.90625 C 249.089844 102.933594 251.023438 99.71875 251.214844 99.390625 C 252.121094 97.828125 253.140625 96.316406 254.421875 95.039062 C 255.492188 93.976562 256.726562 93.09375 258.015625 92.320312 C 258.667969 91.929688 259.332031 91.566406 260.003906 91.21875 C 260.585938 90.917969 261.574219 90.628906 261.980469 90.152344 C 261.917969 90.089844 261.851562 90.035156 261.777344 89.988281 Z M 261.777344 89.988281 " fill-opacity="1" fill-rule="nonzero"/></g></g></g><g clip-path="url(#e0fb619b02)"><g clip-path="url(#015276e5d0)"><g clip-path="url(#76a65316e7)"><path fill="#800000" d="M 268.167969 92.980469 C 268.214844 92.953125 268.261719 92.929688 268.304688 92.898438 C 268.363281 92.863281 268.390625 92.796875 268.300781 92.789062 C 266.007812 92.542969 263.710938 92.316406 261.421875 92.03125 C 263.789062 92.011719 266.144531 92.183594 268.488281 92.535156 C 268.636719 92.558594 268.789062 92.582031 268.941406 92.566406 C 269.144531 92.539062 269.332031 92.441406 269.511719 92.34375 C 270.585938 91.75 271.613281 91.085938 272.59375 90.34375 C 272.765625 90.210938 272.957031 90.070312 273.175781 90.066406 C 272.84375 90.371094 272.488281 90.648438 272.117188 90.902344 C 272 90.984375 271.878906 91.0625 271.789062 91.179688 C 271.691406 91.3125 271.652344 91.480469 271.609375 91.640625 C 271.136719 93.460938 270.246094 95.042969 268.9375 96.390625 C 268.890625 96.4375 268.828125 96.488281 268.769531 96.46875 C 268.660156 96.429688 268.71875 96.265625 268.792969 96.179688 C 269.9375 94.859375 270.808594 93.378906 271.402344 91.738281 C 271.4375 91.640625 271.472656 91.527344 271.429688 91.433594 C 271.472656 91.53125 270.125 92.277344 269.988281 92.347656 C 269.464844 92.625 268.925781 92.875 268.390625 93.136719 C 267.925781 93.363281 267.457031 93.582031 266.992188 93.8125 C 266.65625 93.976562 265.957031 94.183594 265.835938 94.582031 C 265.570312 95.464844 264.960938 96.328125 264.398438 97.042969 C 263.722656 97.902344 262.8125 98.847656 261.859375 99.398438 C 261.804688 99.429688 261.734375 99.457031 261.6875 99.417969 C 261.601562 99.355469 261.691406 99.226562 261.777344 99.164062 C 263.40625 97.976562 264.691406 96.492188 265.640625 94.714844 C 265.65625 94.679688 265.675781 94.640625 265.695312 94.605469 C 265.722656 94.546875 265.660156 94.523438 265.613281 94.546875 C 264.238281 95.28125 262.800781 95.851562 261.402344 96.527344 C 261 96.71875 260.605469 96.921875 260.214844 97.128906 C 260.015625 97.234375 259.820312 97.339844 259.628906 97.449219 C 259.480469 97.53125 259.269531 97.601562 259.175781 97.746094 C 259.144531 97.800781 259.117188 97.859375 259.097656 97.917969 C 258.828125 98.578125 258.273438 99.09375 257.777344 99.585938 C 257.535156 99.824219 257.292969 100.058594 257.03125 100.269531 C 256.824219 100.433594 256.628906 100.609375 256.414062 100.761719 C 256.195312 100.917969 255.980469 101.078125 255.738281 101.199219 C 255.679688 101.230469 255.628906 101.273438 255.570312 101.308594 C 255.542969 101.324219 255.515625 101.335938 255.480469 101.34375 C 255.453125 101.351562 255.410156 101.359375 255.382812 101.351562 C 255.394531 101.332031 255.410156 101.3125 255.425781 101.296875 C 255.441406 101.28125 255.460938 101.265625 255.476562 101.25 C 255.550781 101.183594 255.640625 101.132812 255.71875 101.070312 C 255.925781 100.910156 256.125 100.746094 256.320312 100.578125 C 256.6875 100.253906 257.050781 99.925781 257.398438 99.578125 C 257.582031 99.394531 257.761719 99.207031 257.9375 99.015625 C 258.222656 98.707031 258.488281 98.382812 258.734375 98.042969 C 258.859375 97.871094 258.570312 98.007812 258.527344 98.03125 C 258.347656 98.121094 258.152344 98.1875 257.980469 98.296875 C 257.625 98.519531 257.152344 98.6875 256.765625 98.878906 C 256.300781 99.105469 255.832031 99.328125 255.359375 99.535156 C 254.820312 99.777344 254.273438 100.003906 253.722656 100.21875 C 253.523438 100.296875 252.4375 100.832031 252.3125 100.636719 C 252.246094 100.535156 253.039062 100.277344 253.148438 100.234375 C 253.527344 100.085938 253.902344 99.929688 254.277344 99.773438 C 255.011719 99.464844 255.742188 99.144531 256.464844 98.808594 C 257.199219 98.464844 257.929688 98.109375 258.652344 97.742188 C 259.011719 97.554688 259.371094 97.367188 259.730469 97.175781 C 259.910156 97.078125 260.09375 96.980469 260.277344 96.878906 C 260.394531 96.816406 260.558594 96.78125 260.652344 96.679688 C 260.734375 96.597656 260.691406 96.59375 260.589844 96.582031 C 260.480469 96.566406 260.375 96.554688 260.269531 96.546875 C 259.847656 96.503906 259.425781 96.484375 259.007812 96.449219 C 258.523438 96.410156 258.042969 96.355469 257.566406 96.289062 C 257.328125 96.253906 257.089844 96.21875 256.851562 96.183594 C 256.773438 96.171875 256.257812 96.140625 256.25 96.058594 C 256.242188 96.007812 257.121094 96.070312 257.207031 96.074219 C 257.59375 96.101562 257.984375 96.125 258.371094 96.148438 C 258.851562 96.179688 259.332031 96.210938 259.8125 96.242188 C 260.050781 96.261719 260.285156 96.277344 260.519531 96.292969 C 260.71875 96.308594 260.925781 96.394531 261.125 96.382812 C 261.25 96.378906 261.367188 96.324219 261.484375 96.273438 C 262.230469 95.9375 262.980469 95.597656 263.71875 95.246094 C 264.453125 94.894531 265.167969 94.5 265.886719 94.132812 C 266.300781 93.925781 266.710938 93.714844 267.121094 93.507812 C 267.464844 93.332031 267.828125 93.171875 268.167969 92.980469 Z M 268.167969 92.980469 " fill-opacity="1" fill-rule="nonzero"/></g></g></g><g clip-path="url(#520c463d85)"><g clip-path="url(#8167c4b210)"><g clip-path="url(#3715a310b8)"><path fill="#800000" d="M 269.296875 87.457031 C 269.382812 87.550781 269.457031 87.652344 269.496094 87.769531 C 269.539062 87.898438 269.519531 88.097656 269.636719 88.183594 C 269.695312 88.226562 269.769531 88.242188 269.835938 88.257812 L 270.222656 88.347656 C 270.289062 88.363281 270.472656 88.40625 270.496094 88.480469 C 270.550781 88.6875 270.199219 88.609375 270.097656 88.589844 C 269.570312 88.484375 269.066406 88.316406 268.582031 88.085938 C 268.296875 87.949219 268.015625 87.785156 267.703125 87.714844 C 267.355469 87.636719 267.039062 87.753906 266.699219 87.808594 C 265.335938 88.019531 263.964844 88.082031 262.589844 87.988281 C 262.234375 87.964844 261.878906 87.929688 261.523438 87.886719 C 261.203125 87.847656 260.789062 87.84375 260.496094 87.714844 C 260.828125 87.511719 261.546875 87.777344 261.925781 87.796875 C 262.46875 87.828125 263.011719 87.84375 263.554688 87.84375 C 264.753906 87.839844 265.957031 87.761719 267.144531 87.582031 C 267.167969 87.582031 267.1875 87.570312 267.203125 87.554688 C 267.257812 87.480469 266.214844 87.078125 266.101562 87.03125 C 265.636719 86.839844 265.175781 86.652344 264.710938 86.464844 C 263.785156 86.089844 262.855469 85.722656 261.925781 85.355469 L 258.425781 83.992188 C 257.851562 83.769531 257.273438 83.542969 256.667969 83.402344 C 256.320312 83.320312 255.671875 83.359375 255.445312 83.027344 C 256.566406 82.960938 257.769531 83.457031 258.800781 83.847656 L 261.304688 84.796875 L 262.535156 85.261719 C 262.894531 85.394531 263.300781 85.652344 263.671875 85.710938 C 263.667969 85.710938 263.367188 85.378906 263.332031 85.347656 C 263.144531 85.199219 262.960938 85.046875 262.777344 84.894531 C 262.402344 84.578125 262.03125 84.253906 261.664062 83.921875 C 261.375 83.664062 261.101562 83.390625 260.820312 83.125 C 260.535156 82.851562 260.214844 82.621094 259.925781 82.351562 C 259.828125 82.261719 259.601562 82.050781 259.644531 81.898438 C 259.835938 81.929688 259.988281 82.15625 260.128906 82.277344 C 260.316406 82.4375 260.507812 82.597656 260.699219 82.761719 C 261.066406 83.074219 261.433594 83.390625 261.796875 83.707031 C 262.214844 84.066406 262.628906 84.425781 263.039062 84.789062 C 263.414062 85.117188 263.882812 85.429688 264.148438 85.851562 C 264.222656 85.96875 264.34375 85.988281 264.449219 86.03125 C 264.722656 86.144531 264.984375 86.273438 265.257812 86.382812 C 265.660156 86.546875 266.066406 86.695312 266.46875 86.863281 C 266.835938 87.011719 267.191406 87.175781 267.554688 87.332031 C 267.925781 87.492188 268.300781 87.648438 268.671875 87.816406 C 268.75 87.855469 269.382812 88.175781 269.285156 87.890625 C 269.269531 87.851562 269.246094 87.816406 269.21875 87.785156 C 268.175781 86.628906 267.003906 85.597656 265.960938 84.445312 C 265.804688 84.273438 265.652344 84.09375 265.503906 83.914062 C 265.863281 84.121094 266.109375 84.433594 266.410156 84.714844 C 266.726562 85.007812 267.042969 85.300781 267.355469 85.597656 C 267.980469 86.1875 268.597656 86.789062 269.21875 87.382812 C 269.246094 87.40625 269.273438 87.429688 269.296875 87.457031 Z M 269.296875 87.457031 " fill-opacity="1" fill-rule="nonzero"/></g></g></g></svg>